<?xml version="1.0" encoding="UTF-8" standalone="no"?>
<!-- Created with Inkscape (http://www.inkscape.org/) -->

<svg
   xmlns:dc="http://purl.org/dc/elements/1.1/"
   xmlns:cc="http://creativecommons.org/ns#"
   xmlns:rdf="http://www.w3.org/1999/02/22-rdf-syntax-ns#"
   xmlns:svg="http://www.w3.org/2000/svg"
   xmlns="http://www.w3.org/2000/svg"
   xmlns:sodipodi="http://sodipodi.sourceforge.net/DTD/sodipodi-0.dtd"
   xmlns:inkscape="http://www.inkscape.org/namespaces/inkscape"
   width="16"
   height="16"
   id="svg5504"
   version="1.1"
   inkscape:version="0.91 r13725"
   sodipodi:docname="credentials-stencils.svg">
  <defs
     id="defs5506" />
  <sodipodi:namedview
     id="base"
     pagecolor="#000000"
     bordercolor="#666666"
     borderopacity="1.0"
     inkscape:pageopacity="0"
     inkscape:pageshadow="2"
     inkscape:zoom="11.313709"
     inkscape:cx="-4.8790388"
     inkscape:cy="1155.5034"
     inkscape:document-units="px"
     inkscape:current-layer="g3435"
     showgrid="true"
     inkscape:showpageshadow="true"
     showborder="false"
     gridtolerance="10"
     inkscape:snap-global="true"
     inkscape:snap-bbox="true"
     inkscape:bbox-paths="true"
     inkscape:window-width="1760"
     inkscape:window-height="804"
     inkscape:window-x="133"
     inkscape:window-y="170"
     inkscape:window-maximized="0">
    <inkscape:grid
       type="xygrid"
       id="grid5512"
       empspacing="2"
       visible="true"
       enabled="true"
       snapvisiblegridlinesonly="true" />
  </sodipodi:namedview>
  <metadata
     id="metadata5509">
    <rdf:RDF>
      <cc:Work
         rdf:about="">
        <dc:format>image/svg+xml</dc:format>
        <dc:type
           rdf:resource="http://purl.org/dc/dcmitype/StillImage" />
        <dc:title />
      </cc:Work>
    </rdf:RDF>
  </metadata>
  <g
     inkscape:label="actions"
     inkscape:groupmode="layer"
     id="layer1"
     transform="translate(0,-1036.3622)">
    <g
       id="g3435"
       inkscape:label="credentials-edit-toggle-visibility">
      <g
         id="g3338">
        <rect
           y="-127.6378"
           x="-5"
           height="16"
           width="16"
           id="rect18275-6-25"
           style="opacity:0.01000001;fill:#000000;fill-opacity:1;stroke:none" />
        <path
           id="path15737"
           transform="translate(0,1036.3622)"
           d="M 2.9257812 -1160.5391 C -0.58651875 -1160.5391 -5.0742188 -1157.0446 -5.0742188 -1156.0293 C -5.0742188 -1155.014 -0.60861875 -1151.517 2.9257812 -1151.5391 C 6.4601813 -1151.5612 10.947781 -1155.014 10.925781 -1156.0293 C 10.903681 -1157.0446 6.4380812 -1160.5391 2.9257812 -1160.5391 z M 2.9257812 -1159.0391 A 2.999995 2.999995 0 0 1 5.9257812 -1156.0391 A 2.999995 2.999995 0 0 1 2.9257812 -1153.0391 A 2.999995 2.999995 0 0 1 -0.07421875 -1156.0391 A 2.999995 2.999995 0 0 1 2.9257812 -1159.0391 z "
           style="color:#000000;clip-rule:nonzero;display:inline;overflow:visible;visibility:visible;opacity:1;isolation:auto;mix-blend-mode:normal;color-interpolation:sRGB;color-interpolation-filters:linearRGB;solid-color:#000000;solid-opacity:1;fill:#2e3436;fill-opacity:1;fill-rule:nonzero;stroke:#919191;stroke-width:0;stroke-linecap:round;stroke-linejoin:miter;stroke-miterlimit:4;stroke-dasharray:none;stroke-dashoffset:0;stroke-opacity:1;marker:none;color-rendering:auto;image-rendering:auto;shape-rendering:auto;text-rendering:auto;enable-background:accumulate" />
        <circle
           r="1.499995"
           cy="-119.67781"
           cx="2.9254"
           id="circle15741"
           style="color:#000000;clip-rule:nonzero;display:inline;overflow:visible;visibility:visible;opacity:1;isolation:auto;mix-blend-mode:normal;color-interpolation:sRGB;color-interpolation-filters:linearRGB;solid-color:#000000;solid-opacity:1;fill:#2e3436;fill-opacity:1;fill-rule:nonzero;stroke:#919191;stroke-width:0;stroke-linecap:round;stroke-linejoin:miter;stroke-miterlimit:4;stroke-dasharray:none;stroke-dashoffset:0;stroke-opacity:1;marker:none;color-rendering:auto;image-rendering:auto;shape-rendering:auto;text-rendering:auto;enable-background:accumulate" />
      </g>
      <path
         style="color:#000000;display:inline;overflow:visible;visibility:visible;opacity:1;fill:#888a85;fill-opacity:1;fill-rule:nonzero;stroke:none;stroke-width:1.70000005;stroke-linejoin:miter;stroke-miterlimit:4;stroke-dasharray:none;stroke-opacity:1;marker:none;enable-background:accumulate"
         d="m 1.9445413,-1151.6405 c -1.31167583,-0.1988 -3.2151954,-1.024 -4.7112899,-2.0424 -0.9348566,-0.6364 -2.1476948,-1.7976 -2.2331644,-2.1381 -0.085603,-0.3411 0.091971,-0.6808 0.6542076,-1.2513 1.4031277,-1.4239 3.7847332,-2.7653 5.7354754,-3.2304 1.0961395,-0.2613 2.580877,-0.2048 3.6483634,0.1389 2.5346383,0.8161 5.8336306,3.1558 5.8336306,4.1374 0,0.7352 -2.008283,2.3802 -4.1908431,3.4327 -1.734151,0.8363 -3.3552376,1.1626 -4.7363796,0.9532 z m 2.0952554,-1.5951 c 0.7052215,-0.2639 1.4289364,-0.992 1.6996372,-1.7099 0.1645075,-0.4363 0.1929252,-0.6543 0.1611814,-1.2368 -0.065089,-1.1943 -0.6037781,-2.0286 -1.6382815,-2.5374 -0.5289078,-0.2602 -0.6713595,-0.291 -1.344212,-0.2905 -0.904152,5e-4 -1.5323443,0.2489 -2.12262893,0.8392 -0.69930153,0.6993 -1.05442689,1.9622 -0.8077885,2.8726 0.24949952,0.921 1.10948703,1.8513 1.95683693,2.1169 0.6132796,0.1922 1.4978426,0.1694 2.0952554,-0.054 z"
         id="path3373"
         inkscape:connector-curvature="0"
         transform="translate(0,1036.3622)" />
      <path
         style="color:#000000;display:inline;overflow:visible;visibility:visible;opacity:1;fill:#888a85;fill-opacity:1;fill-rule:nonzero;stroke:none;stroke-width:1.70000005;stroke-linejoin:miter;stroke-miterlimit:4;stroke-dasharray:none;stroke-opacity:1;marker:none;enable-background:accumulate"
         d="m 2.3353416,-1154.7147 c -1.43072967,-0.6498 -0.994716,-2.7696 0.5696702,-2.7696 0.7176317,0 1.2283521,0.3865 1.4387489,1.0887 0.2062358,0.6884 -0.2830181,1.5588 -0.9901534,1.7616 -0.4236321,0.1215 -0.6046597,0.1071 -1.0182657,-0.081 z"
         id="path3375"
         inkscape:connector-curvature="0"
         transform="translate(0,1036.3622)" />
    </g>
  </g>
</svg>
